<svg width="248" height="214" viewBox="0 0 248 214" fill="none" xmlns="http://www.w3.org/2000/svg">
<g filter="url(#filter0_d_124_401)">
<rect x="4" width="240" height="206" rx="10" fill="url(#paint0_linear_124_401)"/>
<g clip-path="url(#clip0_124_401)">
<path d="M94.2135 119.953C98.4981 119.953 102.004 116.747 102.004 112.829C102.004 108.91 98.4981 105.704 94.2135 105.704C89.929 105.704 86.4233 108.91 86.4233 112.829C86.4233 116.747 89.929 119.953 94.2135 119.953ZM94.2135 109.266C96.3559 109.266 98.1087 110.869 98.1087 112.829C98.1087 114.788 96.3559 116.391 94.2135 116.391C92.0711 116.391 90.3183 114.788 90.3183 112.828C90.3183 110.869 92.0711 109.266 94.2135 109.266Z" fill="white"/>
<path d="M181.854 110.869C181.854 98.5057 171.882 88.1701 158.93 86.2538L155.658 71.8632H158.545C158.815 75.4386 160.126 79.0134 165.3 80.2345C166.274 80.4125 167.442 80.5908 168.416 80.5908C169.974 80.5908 171.727 80.2345 173.479 79.8784L180.685 77.2067C181.854 76.8504 182.244 75.96 181.854 74.8913C181.464 73.8227 180.296 73.4664 179.322 73.8227L172.116 76.4943C170.169 77.2067 168.221 77.2067 166.468 76.8506C163.826 76.2466 162.724 74.8732 162.45 71.8636H164.326C166.468 71.8636 168.221 70.2606 168.221 68.3013V64.7386C168.221 62.7793 166.468 61.1763 164.326 61.1763H139.008C136.865 61.1763 135.112 62.7793 135.112 64.7386V68.3009C135.112 70.2602 136.865 71.8632 139.008 71.8632H141.308L145.168 87.4565C138.382 89.7316 132.797 94.4341 129.762 100.709L97.5027 98.8465L90.7006 73.6442H93.8241C97.3297 73.6442 100.056 71.1506 100.056 67.7666C100.056 65.0949 98.1089 62.9576 95.3823 62.2452L78.4382 58.6829C76.4907 58.3266 74.7379 58.6829 73.1798 59.7516C71.6216 60.8203 70.8427 62.4233 70.8427 64.2043V68.1227C70.8427 71.1506 73.5694 73.644 76.8801 73.644H77.0563L77.9838 77.2063H66.9475C65.779 77.2063 65 77.9187 65 78.9873C65 80.056 65.779 80.7684 66.9475 80.7684H68.895V82.5494C68.895 83.6181 69.6739 84.3305 70.8425 84.3305C71.8163 84.3305 72.79 83.6181 72.79 82.5494V80.7684H78.9109L84.385 101.795C80.8805 104.413 78.6327 108.392 78.6327 112.828C78.6327 116.213 79.9422 119.33 82.1184 121.781L73.4671 137.764H72.7902C69.4792 137.764 66.9475 140.079 66.9475 143.107C66.9475 146.135 69.6742 148.451 72.7902 148.451H172.116C175.427 148.451 177.959 146.135 177.959 143.107C177.959 140.079 175.232 137.764 172.116 137.764H171.047L169.648 131.749C176.991 127.217 181.854 119.502 181.854 110.869ZM94.2135 127.077C95.382 127.077 96.5506 126.899 97.5244 126.721L130.555 122.817C135.295 130.827 144.588 135.983 154.588 135.983C155.24 135.983 155.886 135.96 156.526 135.918L156.982 137.764H87.6423L93.708 127.066C93.8762 127.071 94.0439 127.077 94.2135 127.077ZM139.008 64.7386H164.326V68.3009H153.225H142.903H139.007V64.7386H139.008ZM145.24 71.8632H151.472L154.742 85.9357C154.69 85.9355 154.639 85.9339 154.588 85.9339C152.643 85.9339 150.74 86.123 148.898 86.4782L145.24 71.8632ZM147.814 90.5648C147.93 90.5648 148.045 90.5648 148.161 90.5648C150.304 90.0305 152.446 89.6742 154.588 89.6742C155.173 89.6742 155.754 89.6946 156.328 89.7339C156.628 89.7602 156.951 89.7969 157.315 89.8524C157.537 89.9201 157.759 89.9357 157.97 89.9004C169.236 91.4108 177.959 100.342 177.959 111.047C177.959 122.803 167.442 132.421 154.588 132.421C146.431 132.421 139.05 128.523 134.76 122.32L154.783 119.953C160.041 119.953 164.326 115.856 164.326 111.047C164.326 106.06 160.041 102.142 154.783 102.142L133.944 100.895C136.939 95.808 141.92 92.1563 147.814 90.5648ZM74.7379 68.1229V64.2043C74.7379 63.4919 74.9326 62.9576 75.5169 62.4233C75.9064 62.2452 76.2958 62.067 76.8801 62.067C77.0748 62.067 77.2697 62.245 77.4643 62.245L94.4082 65.8073C95.382 65.9853 96.161 66.876 96.161 67.9446C96.161 69.1913 95.1871 70.0819 93.8239 70.0819H88.1759H78.6329H76.8801C75.7115 70.0819 74.7379 69.1915 74.7379 68.1229ZM86.618 73.6442L93.6292 98.0455C91.6817 98.2235 89.734 98.5798 87.9812 99.2922L81.1649 73.6442H86.618ZM94.2135 102.142C94.6031 102.142 94.9924 102.142 95.5767 102.142L154.393 105.704C154.588 105.704 154.588 105.704 154.588 105.704C157.899 105.704 160.431 108.02 160.431 111.047C160.431 114.075 157.899 116.391 154.588 116.391H154.393L129.355 119.34L128.685 119.419L128.686 119.419L96.9399 123.159C95.7639 123.428 94.6152 123.527 93.5112 123.485C93.2981 123.39 93.0742 123.337 92.85 123.337C90.1291 123.159 87.7961 122.094 85.8509 120.32C83.7866 118.37 82.5279 115.701 82.5279 112.829C82.5281 106.951 87.7865 102.142 94.2135 102.142ZM85.2548 124.584C86.618 125.474 88.1761 126.009 89.7342 126.543L83.3073 137.764H77.8539L85.2548 124.584ZM174.064 143.107C174.064 144.176 173.09 144.888 172.116 144.888H72.7904C71.6219 144.888 70.8429 144.176 70.8429 143.107C70.8429 142.039 71.8168 141.326 72.7904 141.326H74.7379H84.4758H159.457H169.195H172.116C173.285 141.326 174.064 142.039 174.064 143.107ZM166.858 137.764H161.015L160.431 135.449C160.749 135.361 161.061 135.274 161.37 135.185C162.935 134.81 164.446 134.308 165.89 133.694L166.858 137.764Z" fill="white"/>
</g>
</g>
<defs>
<filter id="filter0_d_124_401" x="0" y="0" width="248" height="214" filterUnits="userSpaceOnUse" color-interpolation-filters="sRGB">
<feFlood flood-opacity="0" result="BackgroundImageFix"/>
<feColorMatrix in="SourceAlpha" type="matrix" values="0 0 0 0 0 0 0 0 0 0 0 0 0 0 0 0 0 0 127 0" result="hardAlpha"/>
<feOffset dy="4"/>
<feGaussianBlur stdDeviation="2"/>
<feComposite in2="hardAlpha" operator="out"/>
<feColorMatrix type="matrix" values="0 0 0 0 0 0 0 0 0 0 0 0 0 0 0 0 0 0 0.25 0"/>
<feBlend mode="normal" in2="BackgroundImageFix" result="effect1_dropShadow_124_401"/>
<feBlend mode="normal" in="SourceGraphic" in2="effect1_dropShadow_124_401" result="shape"/>
</filter>
<linearGradient id="paint0_linear_124_401" x1="124" y1="0" x2="124" y2="206" gradientUnits="userSpaceOnUse">
<stop stop-color="#F61F1F"/>
<stop offset="1" stop-color="#320F0F"/>
</linearGradient>
<clipPath id="clip0_124_401">
<rect width="117" height="107" fill="white" transform="translate(65 50)"/>
</clipPath>
</defs>
</svg>
