<svg width="248" height="214" viewBox="0 0 248 214" fill="none" xmlns="http://www.w3.org/2000/svg">
<g filter="url(#filter0_d_123_348)">
<rect x="4" width="240" height="206" rx="10" fill="url(#paint0_linear_123_348)"/>
<g clip-path="url(#clip0_123_348)">
<path d="M176.235 127.804C175.165 126.734 173.905 126.001 172.575 125.604C175.145 122.22 174.878 117.516 171.77 114.408C168.367 111.006 163.051 111.006 159.649 114.408L156.672 117.385L141.681 102.394L156.659 87.4154L159.649 90.3793C161.137 92.0804 163.264 92.9309 165.603 92.9309C167.942 92.9309 169.856 91.6551 171.557 90.1664C173.258 88.678 174.109 86.3388 174.109 84.2124C174.109 82.4152 173.498 80.6188 172.283 79.0782C173.695 78.7581 175.043 78.1015 176.022 76.9826L176.448 76.5573C179.637 73.3676 179.637 68.2643 176.448 65.0746L161.137 49.7642C157.735 46.3618 152.419 46.3618 149.017 49.7642C147.91 50.8712 147.165 52.1811 146.779 53.5615C143.383 50.8465 138.569 51.068 135.407 54.2298C132.005 57.6321 132.005 62.9482 135.407 66.3504L138.504 69.4202L123.606 84.3188L108.415 69.1279L111.379 66.1378C113.08 64.6493 113.93 62.5228 113.93 60.1838C113.93 57.8448 113.08 55.7182 111.379 54.2298C109.89 52.5287 107.764 51.6781 105.425 51.6781C103.687 51.6781 101.948 52.2474 100.443 53.3841C100.059 51.9909 99.3112 50.668 98.195 49.5518C94.7926 46.1494 89.4765 46.1494 86.0743 49.5518L70.977 64.6493C67.5746 68.0517 67.5746 73.3678 70.977 76.77C72.0587 77.8516 73.3125 78.5879 74.6286 78.9817C72.0679 82.3652 72.3382 87.0621 75.4426 90.1664C77.1436 91.8675 79.2702 92.7181 81.3966 92.7181C83.5229 92.7181 85.6495 91.8675 87.3506 90.3791L90.4204 87.2822L105.532 102.393L90.3275 117.597L87.3504 114.621C85.8619 112.92 83.5227 112.069 81.3964 112.069C79.27 112.069 77.1434 112.92 75.4423 114.621C73.7413 116.109 72.8907 118.236 72.8907 120.575C72.8907 122.381 73.5068 124.186 74.7342 125.732C73.2905 126.103 71.9174 126.864 70.7644 128.017L70.5517 128.23C67.362 131.419 67.362 136.736 70.5517 139.925L86.2874 155.661C87.7759 157.149 89.9024 158 91.8161 158C93.9425 158 95.8564 157.149 97.3449 155.661L97.9828 155.235C99.1358 154.082 99.8967 152.709 100.268 151.266C101.814 152.493 103.619 153.109 105.425 153.109C107.552 153.109 109.891 152.259 111.379 150.77C114.782 147.368 114.782 142.052 111.379 138.649L108.402 135.672L123.606 120.468L138.598 135.46L135.621 138.437C133.919 139.925 133.069 142.052 133.069 144.391C133.069 146.517 134.132 148.644 135.621 150.345C137.109 152.046 139.236 152.896 141.575 152.896C143.358 152.896 145.289 152.296 146.744 151.099C147.12 152.526 147.876 153.882 149.017 155.023L149.868 155.873C151.143 157.362 153.057 158 154.971 158C156.885 158 158.799 157.149 160.287 155.661L176.448 139.5C179.638 136.31 179.638 131.207 176.448 128.017L176.235 127.804ZM151.994 52.954C152.845 52.1034 153.908 51.6781 154.971 51.6781C156.247 51.6781 157.31 52.1034 157.948 53.1666L173.259 68.477C174.747 69.9654 174.747 72.3046 173.259 73.7931L173.046 74.0057C171.797 75.4325 169.653 75.6577 167.99 74.691L151.287 57.9879C150.911 57.3434 150.718 56.6379 150.718 55.9308C150.718 54.8677 151.144 53.8045 151.994 52.954ZM138.598 63.3735C136.897 61.6724 136.897 59.1206 138.598 57.4195C139.448 56.569 140.511 56.1437 141.575 56.1437C142.638 56.1437 143.701 56.569 144.552 57.4195L168.581 81.4482C169.431 82.2987 169.856 83.3619 169.856 84.4253C169.856 85.4887 169.431 86.5516 168.581 87.4024C167.092 89.1035 164.328 89.1035 162.627 87.4024L159.649 84.4253L141.575 66.3506L138.598 63.3735ZM141.362 72.5173L153.483 84.6379L138.704 99.4167L126.583 87.2961L141.362 72.5173ZM73.9539 67.8391L88.839 52.7413C89.6896 51.8908 90.7527 51.4655 91.8161 51.4655C93.092 51.4655 94.1551 51.8908 95.0059 52.7413C96.5919 54.3273 96.6977 56.652 95.3264 58.3381L79.0697 74.4508C77.4424 75.4493 75.3941 75.2333 73.9539 73.7931C72.2528 72.0918 72.2528 69.5402 73.9539 67.8391ZM84.3735 87.1895C82.6724 88.8906 80.1205 88.8906 78.4195 87.1895C76.7184 85.4885 76.7184 82.9366 78.4195 81.2355L82.0649 77.5901C82.4148 77.3427 82.7598 77.0704 83.0977 76.77L98.1954 61.6722C98.5912 61.2764 98.939 60.8538 99.2427 60.4123L102.448 57.2067C103.299 56.3561 104.362 55.9308 105.425 55.9308C106.489 55.9308 107.552 56.3561 108.403 57.2067C109.253 58.0572 109.678 59.1204 109.678 60.1838C109.678 61.2472 109.253 62.3101 108.403 63.1609L105.425 66.138L87.3508 84.2127L84.3735 87.1895ZM99.3649 78.2586L105.425 72.3046L120.556 87.3689L120.523 87.4024L138.598 105.477L138.671 105.404L153.483 120.15L141.362 132.27L93.3841 84.2921L99.3649 78.2586ZM95.0057 152.046L94.3678 152.684C93.092 153.96 90.7527 153.96 89.4769 152.684L73.7413 137.161C72.2528 135.46 72.2528 132.908 73.7413 131.419L73.9539 131.207C74.8044 130.356 75.8676 129.931 76.931 129.931C77.9944 129.931 79.0574 130.144 79.9081 130.994L95.0059 146.092C96.7068 147.793 96.7068 150.345 95.0057 152.046ZM108.402 141.626C110.103 143.327 110.103 145.879 108.402 147.58C106.701 149.281 104.149 149.281 102.448 147.58L97.983 143.115L97.9826 143.115L82.885 128.017L78.4195 123.551C77.5689 122.701 77.1436 121.638 77.1436 120.574C77.1436 119.511 77.5689 118.448 78.4195 117.597C79.27 116.747 80.3332 116.321 81.3966 116.321C82.4597 116.321 83.5229 116.747 84.3735 117.597L87.3506 120.574L105.425 138.649L108.402 141.626ZM120.523 117.598L105.425 132.695L93.3044 120.575L108.615 105.477L108.615 105.478L120.523 117.598ZM138.598 147.368C137.747 146.517 137.322 145.454 137.322 144.391C137.322 143.327 137.747 142.264 138.598 141.414L141.575 138.436L159.649 120.362L162.626 117.385C163.477 116.534 164.54 116.109 165.603 116.109C166.667 116.109 167.73 116.534 168.581 117.385C170.282 119.086 170.282 121.638 168.581 123.339L164.115 127.804L164.115 127.804L156.566 135.353L144.552 147.368C143.063 149.069 140.299 149.069 138.598 147.368ZM173.471 136.736L157.31 152.896C156.034 154.172 154.12 154.172 152.845 152.896L151.994 152.046C150.293 150.345 150.293 147.793 151.994 146.092L159.649 138.437L167.836 130.394C168.527 129.946 169.297 129.718 170.069 129.718C171.132 129.718 172.195 130.144 173.259 131.207L173.471 131.419C174.96 132.908 174.96 135.247 173.471 136.736Z" fill="white"/>
</g>
</g>
<defs>
<filter id="filter0_d_123_348" x="0" y="0" width="248" height="214" filterUnits="userSpaceOnUse" color-interpolation-filters="sRGB">
<feFlood flood-opacity="0" result="BackgroundImageFix"/>
<feColorMatrix in="SourceAlpha" type="matrix" values="0 0 0 0 0 0 0 0 0 0 0 0 0 0 0 0 0 0 127 0" result="hardAlpha"/>
<feOffset dy="4"/>
<feGaussianBlur stdDeviation="2"/>
<feComposite in2="hardAlpha" operator="out"/>
<feColorMatrix type="matrix" values="0 0 0 0 0 0 0 0 0 0 0 0 0 0 0 0 0 0 0.25 0"/>
<feBlend mode="normal" in2="BackgroundImageFix" result="effect1_dropShadow_123_348"/>
<feBlend mode="normal" in="SourceGraphic" in2="effect1_dropShadow_123_348" result="shape"/>
</filter>
<linearGradient id="paint0_linear_123_348" x1="124" y1="0" x2="124" y2="206" gradientUnits="userSpaceOnUse">
<stop stop-color="#F61F1F"/>
<stop offset="1" stop-color="#320F0F"/>
</linearGradient>
<clipPath id="clip0_123_348">
<rect width="111" height="111" fill="white" transform="translate(68 47)"/>
</clipPath>
</defs>
</svg>
