<svg width="248" height="214" viewBox="0 0 248 214" fill="none" xmlns="http://www.w3.org/2000/svg">
<g filter="url(#filter0_d_124_413)">
<rect x="4" width="240" height="206" rx="10" fill="url(#paint0_linear_124_413)"/>
<path d="M173.408 59.9166C172.277 59.9166 171.202 60.2106 170.261 60.7219C169.393 58.1572 166.877 56.2499 163.992 56.2499C160.413 56.2499 157.4 59.1833 157.4 62.6665V65.4165H89.5999V62.6665C89.5999 59.1831 86.5865 56.2499 83.0083 56.2499C80.1232 56.2499 77.6065 58.1574 76.7393 60.7219C75.798 60.2106 74.7234 59.9166 73.5917 59.9166C70.0132 59.9166 67 62.85 67 66.3332V75.4998C67 78.9833 70.0134 81.9165 73.5917 81.9165C74.7232 81.9165 75.798 81.6225 76.7393 81.1111C77.6065 83.6759 80.1232 85.5832 83.0083 85.5832C86.5867 85.5832 89.5999 82.6497 89.5999 79.1665V76.4166H93.3666V81.9165C93.3666 83.0165 94.1198 83.7497 95.2498 83.7497H97.1331V147.916C97.1331 149.016 97.8863 149.75 99.0163 149.75C99.958 149.75 100.9 149.016 100.9 147.916V83.7499H102.783C103.724 83.7499 104.666 83.0167 104.666 81.9167V76.4168H142.333V81.9167C142.333 83.0167 143.086 83.7499 144.216 83.7499H146.099V147.917C146.099 149.017 146.852 149.75 147.982 149.75C148.924 149.75 149.866 149.017 149.866 147.917V83.7499H151.749C152.691 83.7499 153.632 83.0167 153.632 81.9167V76.4168H157.399V79.1667C157.399 82.6502 160.412 85.5834 163.99 85.5834C166.875 85.5834 169.392 83.6759 170.259 81.1114C171.201 81.6227 172.275 81.9167 173.407 81.9167C176.985 81.9167 179.999 78.9833 179.999 75.5V66.3332C180 62.85 176.987 59.9166 173.408 59.9166ZM73.5917 78.25C72.0849 78.25 70.7667 76.9668 70.7667 75.5V66.3332C70.7667 64.8665 72.0849 63.5833 73.5917 63.5833C75.0984 63.5833 76.4166 64.8665 76.4166 66.3332V75.4998C76.4166 76.9665 75.0984 78.25 73.5917 78.25ZM85.8332 79.1667C85.8332 80.6335 84.515 81.9167 83.0083 81.9167C81.5015 81.9167 80.1833 80.6335 80.1833 79.1667V75.5V66.3332V62.6667C80.1833 61.2 81.5015 59.9168 83.0083 59.9168C84.515 59.9168 85.8332 61.2 85.8332 62.6667V67.2502V74.5835V79.1667ZM100.9 80.0832H97.1333V76.4166H100.9V80.0832ZM149.866 80.0832H146.1V76.4166H149.866V80.0832ZM151.75 72.7499H144.217H102.783H95.2498H89.5999V69.0834H157.4V72.7501L151.75 72.7499ZM166.816 79.1667C166.816 80.6335 165.498 81.9167 163.992 81.9167C162.485 81.9167 161.167 80.6335 161.167 79.1667V74.5833V67.2499V62.6667C161.167 61.2 162.485 59.9168 163.992 59.9168C165.498 59.9168 166.816 61.2 166.816 62.6667V66.3334V75.5V79.1667ZM176.233 75.5C176.233 76.9668 174.915 78.25 173.408 78.25C171.902 78.25 170.583 76.9668 170.583 75.5V66.3332C170.583 64.8665 171.902 63.5833 173.408 63.5833C174.915 63.5833 176.233 64.8665 176.233 66.3332V75.5Z" fill="white"/>
<path d="M136.683 111.25H110.317C107.115 111.25 104.667 113.633 104.667 116.75C104.667 119.219 106.204 121.226 108.433 121.954V147.917C108.433 149.017 109.187 149.75 110.317 149.75C111.447 149.75 112.2 149.017 112.2 147.917V122.25H134.8V147.916C134.8 149.016 135.553 149.75 136.683 149.75C137.625 149.75 138.566 149.016 138.566 147.916V121.931C140.715 121.182 142.333 119.191 142.333 116.75C142.333 113.633 139.885 111.25 136.683 111.25ZM136.683 118.583H110.317C109.187 118.583 108.433 117.85 108.433 116.75C108.433 115.65 109.187 114.917 110.317 114.917H136.683C137.813 114.917 138.567 115.65 138.567 116.75C138.567 117.85 137.813 118.583 136.683 118.583Z" fill="white"/>
</g>
<defs>
<filter id="filter0_d_124_413" x="0" y="0" width="248" height="214" filterUnits="userSpaceOnUse" color-interpolation-filters="sRGB">
<feFlood flood-opacity="0" result="BackgroundImageFix"/>
<feColorMatrix in="SourceAlpha" type="matrix" values="0 0 0 0 0 0 0 0 0 0 0 0 0 0 0 0 0 0 127 0" result="hardAlpha"/>
<feOffset dy="4"/>
<feGaussianBlur stdDeviation="2"/>
<feComposite in2="hardAlpha" operator="out"/>
<feColorMatrix type="matrix" values="0 0 0 0 0 0 0 0 0 0 0 0 0 0 0 0 0 0 0.25 0"/>
<feBlend mode="normal" in2="BackgroundImageFix" result="effect1_dropShadow_124_413"/>
<feBlend mode="normal" in="SourceGraphic" in2="effect1_dropShadow_124_413" result="shape"/>
</filter>
<linearGradient id="paint0_linear_124_413" x1="124" y1="0" x2="124" y2="206" gradientUnits="userSpaceOnUse">
<stop stop-color="#F61F1F"/>
<stop offset="1" stop-color="#320F0F"/>
</linearGradient>
</defs>
</svg>
