<?xml version="1.0" encoding="iso-8859-1"?>
<!-- Uploaded to: SVG Repo, www.svgrepo.com, Generator: SVG Repo Mixer Tools -->
<svg fill="#000000" height="800px" width="800px" version="1.1" id="Layer_1" xmlns="http://www.w3.org/2000/svg" xmlns:xlink="http://www.w3.org/1999/xlink" 
	 viewBox="0 0 512 512" xml:space="preserve">
<g transform="translate(1 1)">
	<g>
		<g>
			<path d="M511,103.136c0-27.77-11.281-53.803-30.373-73.763C460.668,9.414,434.634-1,406.864-1c-24.3,0-47.271,7.974-66.005,23.34
				c-17.716-5.107-36.867-0.306-50.279,13.107l-92.013,92.827l-10.387-10.387c-3.471-3.471-8.678-6.075-14.753-6.075
				c-5.207,0-10.414,1.736-14.753,6.075l-28.637,28.637c0,0,0,0,0,0l-5.418,5.418L5.942,270.62C1.603,274.959-1,281.034-1,287.108
				s2.603,12.149,6.075,15.62l59.878,59.878c6.075,6.075,13.885,9.546,22.563,9.546s16.488-3.471,22.563-9.546l17.982-18.094
				c1.02-0.432,2.029-1.049,2.845-1.866l24.298-24.298c0.972-0.972,1.662-2.082,2.089-3.25l43.922-44.195
				c1.174-0.432,2.126-1.101,2.585-2.019l24.298-24.298c0.77-0.77,1.36-1.629,1.788-2.532l19.907-20.031
				c12.149-11.281,12.149-30.373,0-42.522l-3.037-3.037l57.181-57.181c3.263,21.625,13.131,41.581,29.165,57.615
				c15.848,15.848,35.528,25.671,56.864,29.048l-56.43,56.43l-3.037-3.037c-12.149-11.281-32.108-11.281-43.39,0l-20.748,20.877
				c-0.326,0.249-0.645,0.516-0.947,0.818l-24.298,24.298c-0.544,0.544-0.993,1.091-1.366,1.662l-45.877,46.163
				c-0.789,0.414-1.54,0.957-2.221,1.639l-24.298,24.298c-0.779,0.779-1.373,1.648-1.802,2.562l-17.289,17.397
				c-13.017,13.017-13.017,32.976,0,45.993l59.01,59.01c4.339,4.339,9.546,6.942,15.62,6.942c5.207,0,11.281-1.736,15.62-6.075
				l153.6-154.468c4.339-4.339,6.075-8.678,6.075-14.753s-1.736-10.414-6.075-14.753l-9.573-9.573l91.146-91.959
				c13.249-13.249,18.791-32.795,14.128-50.471C503.078,150.25,511,127.353,511,103.136z M198.159,250.227l-73.329-73.329
				l12.149-12.149l73.329,73.329L198.159,250.227z M185.576,262.81l-36.881,36.881l-73.491-73.491l36.777-36.986L185.576,262.81z
				 M124.397,323.99l-73.329-73.329l12.149-12.149l73.329,73.329L124.397,323.99z M97.929,350.458
				c-6.075,5.207-15.62,5.207-20.827,0l-59.01-59.01c-0.868-1.736-1.736-2.603-1.736-4.339s0.868-2.603,1.736-3.471l20.768-20.886
				l73.388,73.388L97.929,350.458z M238.512,209.875l-16.488,16.488l-73.699-73.699l22.499-22.627
				c0.868-0.868,1.736-0.868,2.603-0.868s1.736,0,3.471,0.868l13.718,13.718c0.433,0.992,1.064,1.932,1.902,2.77l36.448,36.447
				c0.918,0.918,1.84,1.586,2.886,2.018l6.66,6.66C243.719,196.858,243.719,204.668,238.512,209.875z M301.861,47.597
				c6.075-6.075,14.753-10.414,23.43-10.414c-13.017,16.488-20.827,37.315-22.563,59.01l-67.688,67.688l-24.298-24.298
				L301.861,47.597z M320.085,103.136c0-23.431,8.678-45.125,25.166-61.614c0.628-0.628,1.278-1.223,1.921-1.828l1.551-0.775
				c0.517-0.517,1.033-1.191,1.481-1.948c15.772-13.515,35.502-20.615,56.661-20.615c23.431,0,45.125,8.678,61.614,25.166
				s25.166,38.183,25.166,61.614c0,20.271-6.508,39.235-18.936,54.661c-1.428,0.429-2.749,1.298-3.626,2.614l-0.868,1.736
				c0,0.539-0.336,1.079-0.798,1.618c-0.316,0.326-0.616,0.663-0.938,0.985c-0.986,0.986-1.992,1.94-3.014,2.869
				c-14.089,12.771-31.924,20.282-51.243,21.986c-0.815,0.065-1.631,0.129-2.451,0.172c-0.225,0.014-0.449,0.028-0.674,0.041
				c-1.404,0.063-2.814,0.098-4.231,0.098c-23.43,0-45.125-8.678-61.614-25.166C328.763,148.261,320.085,126.566,320.085,103.136z
				 M332.234,384.302l-72.895-72.895l12.149-12.149l72.895,72.895L332.234,384.302z M320.085,396.451l-37.315,37.315l-72.895-72.895
				l37.315-37.315L320.085,396.451z M258.471,458.064l-72.895-72.895l9.094-9.095l3.055-3.055l72.895,72.895L258.471,458.064z
				 M225.495,491.041c-1.736,1.736-5.207,1.736-6.942,0l-59.01-59.01c-6.075-5.207-6.075-14.753,0-20.827l13.885-13.885
				l72.895,72.895L225.495,491.041z M379.095,337.441l-22.563,22.563l-72.895-72.895l15.62-15.62
				c2.603-1.736,6.075-3.471,9.546-3.471c3.471,0,6.942,1.736,9.546,4.339l8.678,8.678l36.447,36.448c0,0,0.001,0.001,0.001,0.001
				l16.487,16.487c0.868,0.868,0.868,1.736,0.868,2.603C380.831,336.573,380.831,337.441,379.095,337.441z M369.985,298.826
				l-24.3-24.3l67.44-67.439c21.943-1.252,42.572-9.095,59.675-23.099c-0.892,8.629-4.356,17.244-10.396,23.284L369.985,298.826z"/>
			<path d="M456.329,152.6c13.017-13.885,19.959-31.241,19.959-49.464c0-18.224-6.942-35.58-19.959-49.464
				c-13.885-13.017-31.241-19.959-49.464-19.959c-18.224,0-36.447,6.942-49.464,19.959c-13.017,13.885-19.959,31.241-19.959,49.464
				c0,18.224,6.942,35.58,19.959,49.464c13.885,13.017,31.241,19.959,49.464,19.959C425.088,172.559,443.312,166.485,456.329,152.6z
				 M354.797,103.136c0-13.885,6.075-26.034,15.62-36.448c9.546-10.414,22.563-15.62,36.447-15.62
				c13.885,0,26.902,5.207,36.448,15.62c10.414,9.546,15.62,22.563,15.62,36.448c0,13.885-6.075,26.902-15.62,36.447
				c-9.546,10.414-22.563,15.62-36.448,15.62s-26.902-6.075-36.447-15.62C360.003,130.037,354.797,117.02,354.797,103.136z"/>
		</g>
	</g>
</g>
</svg>