<?xml version="1.0" encoding="iso-8859-1"?>
<!-- Uploaded to: SVG Repo, www.svgrepo.com, Generator: SVG Repo Mixer Tools -->
<svg fill="#000000" height="800px" width="800px" version="1.1" id="Layer_1" xmlns="http://www.w3.org/2000/svg" xmlns:xlink="http://www.w3.org/1999/xlink" 
	 viewBox="0 0 503.467 503.467" xml:space="preserve">
<g transform="translate(1)">
	<g>
		<g>
			<path d="M487.646,215.803L287.337,15.495c-9.881-9.881-22.456-15.27-36.828-15.27c-14.372,0-26.947,5.389-36.828,15.27
				L14.27,214.007C4.389,223.888-1,237.361-1,251.733c0,14.372,5.389,27.846,16.168,37.726l198.512,198.512
				c10.779,9.881,23.354,15.27,36.828,15.27c13.474,0,26.049-4.491,35.93-14.372l201.207-200.309
				C507.407,268.8,507.407,235.565,487.646,215.803z M474.172,275.986L273.863,476.295c-13.474,13.474-34.133,13.474-47.607,0
				L26.846,276.884c-6.288-7.186-9.881-16.168-9.881-25.151c0-8.982,3.593-17.965,10.779-25.151L226.256,28.07
				c6.288-6.288,15.27-9.881,24.253-9.881c8.982,0,17.965,3.593,24.253,9.881l199.411,200.309
				C487.646,241.853,487.646,262.512,474.172,275.986z"/>
			<path d="M380.754,197.839c-5.397,0-10.523,1.441-15.012,3.946c-4.136-12.566-16.139-21.911-29.9-21.911
				c-17.067,0-31.439,14.372-31.439,31.439v13.474H196.614v-13.474c0-17.067-14.372-31.439-31.439-31.439
				c-13.761,0-25.764,9.346-29.9,21.911c-4.489-2.505-9.615-3.946-15.012-3.946c-17.067,0-31.439,14.372-31.439,31.439v44.912
				c0,17.067,14.372,31.439,31.439,31.439c5.397,0,10.523-1.441,15.012-3.946c4.136,12.566,16.139,21.911,29.9,21.911
				c17.067,0,31.439-14.372,31.439-31.439v-13.474h107.789v13.474c0,17.067,14.372,31.439,31.439,31.439
				c13.761,0,25.764-9.346,29.9-21.911c4.489,2.505,9.615,3.946,15.012,3.946c17.067,0,31.439-14.372,31.439-31.439v-44.912
				C412.193,212.211,397.821,197.839,380.754,197.839z M120.263,287.663c-7.186,0-13.474-6.288-13.474-13.474v-44.912
				c0-7.186,6.288-13.474,13.474-13.474s13.474,6.288,13.474,13.474v44.912C133.737,281.375,127.449,287.663,120.263,287.663z
				 M178.649,292.154c0,7.186-6.288,13.474-13.474,13.474c-7.186,0-13.474-6.288-13.474-13.474v-17.965v-44.912v-17.965
				c0-7.186,6.288-13.474,13.474-13.474c7.186,0,13.474,6.288,13.474,13.474v22.456v35.93V292.154z M196.614,260.716v-17.965
				h107.789v17.965H196.614z M349.316,292.154c0,7.186-6.288,13.474-13.474,13.474c-7.186,0-13.474-6.288-13.474-13.474v-22.456
				v-35.93v-22.456c0-7.186,6.288-13.474,13.474-13.474c7.186,0,13.474,6.288,13.474,13.474v17.965v44.912V292.154z
				 M394.228,274.189c0,7.186-6.288,13.474-13.474,13.474s-13.474-6.288-13.474-13.474v-44.912c0-7.186,6.288-13.474,13.474-13.474
				s13.474,6.288,13.474,13.474V274.189z"/>
		</g>
	</g>
</g>
</svg>